<svg width="570" height="116" viewBox="0 0 570 116" fill="none" xmlns="http://www.w3.org/2000/svg">
<path d="M76.1265 94V23.5105H91.0298V81.7125H121.249V94H76.1265ZM154.937 95.0326C149.499 95.0326 144.818 93.9312 140.894 91.7284C136.993 89.5026 133.987 86.359 131.876 82.2976C129.765 78.2133 128.71 73.3832 128.71 67.8074C128.71 62.3692 129.765 57.5965 131.876 53.4892C133.987 49.3819 136.959 46.1809 140.791 43.8864C144.646 41.5918 149.166 40.4445 154.352 40.4445C157.839 40.4445 161.086 41.0067 164.092 42.131C167.121 43.2324 169.76 44.896 172.008 47.1217C174.28 49.3475 176.047 52.1469 177.309 55.5199C178.571 58.87 179.202 62.7937 179.202 67.2911V71.3181H134.561V62.2315H165.4C165.4 60.1205 164.941 58.2504 164.023 56.6213C163.105 54.9921 161.832 53.7186 160.203 52.8008C158.597 51.86 156.727 51.3896 154.593 51.3896C152.367 51.3896 150.393 51.9059 148.673 52.9385C146.975 53.9481 145.644 55.3134 144.68 57.0343C143.716 58.7323 143.223 60.6253 143.2 62.7134V71.3525C143.2 73.9683 143.682 76.2285 144.646 78.133C145.632 80.0375 147.02 81.506 148.81 82.5386C150.6 83.5711 152.722 84.0874 155.178 84.0874C156.807 84.0874 158.298 83.858 159.652 83.399C161.006 82.9401 162.165 82.2517 163.128 81.3339C164.092 80.4161 164.826 79.2917 165.331 77.9609L178.892 78.8558C178.204 82.1141 176.793 84.9594 174.659 87.3916C172.548 89.8009 169.817 91.6825 166.467 93.0363C163.14 94.3671 159.296 95.0326 154.937 95.0326ZM203.846 94.9981C200.473 94.9981 197.467 94.413 194.828 93.2428C192.189 92.0496 190.101 90.2943 188.564 87.9767C187.049 85.6363 186.292 82.7221 186.292 79.2344C186.292 76.2973 186.831 73.8306 187.91 71.8344C188.988 69.8381 190.457 68.2319 192.315 67.0157C194.174 65.7996 196.285 64.8818 198.649 64.2622C201.035 63.6427 203.536 63.2067 206.152 62.9543C209.227 62.6331 211.705 62.3348 213.586 62.0594C215.468 61.7611 216.833 61.3252 217.682 60.7515C218.531 60.1779 218.956 59.3289 218.956 58.2045V57.998C218.956 55.8182 218.267 54.1317 216.89 52.9385C215.537 51.7453 213.609 51.1487 211.108 51.1487C208.469 51.1487 206.37 51.7338 204.809 52.9041C203.249 54.0514 202.217 55.4969 201.712 57.2408L188.151 56.1394C188.839 52.927 190.193 50.1506 192.212 47.8101C194.231 45.4467 196.836 43.634 200.025 42.3719C203.238 41.087 206.955 40.4445 211.177 40.4445C214.114 40.4445 216.925 40.7887 219.61 41.477C222.317 42.1654 224.715 43.2324 226.803 44.678C228.914 46.1236 230.578 47.9822 231.794 50.2538C233.01 52.5025 233.618 55.1986 233.618 58.3422V94H219.713V86.6688H219.3C218.451 88.3209 217.315 89.778 215.892 91.04C214.47 92.2791 212.76 93.2543 210.764 93.9656C208.768 94.654 206.462 94.9981 203.846 94.9981ZM208.045 84.879C210.202 84.879 212.106 84.4545 213.758 83.6056C215.41 82.7336 216.707 81.5634 217.648 80.0948C218.588 78.6263 219.059 76.9627 219.059 75.1041V69.4939C218.6 69.7922 217.969 70.0675 217.166 70.3199C216.386 70.5494 215.502 70.7674 214.516 70.9739C213.529 71.1575 212.542 71.3295 211.556 71.4902C210.569 71.6278 209.674 71.754 208.871 71.8688C207.15 72.1212 205.647 72.5227 204.362 73.0734C203.077 73.6241 202.079 74.3699 201.368 75.3106C200.656 76.2285 200.301 77.3758 200.301 78.7525C200.301 80.7488 201.023 82.2747 202.469 83.3302C203.938 84.3628 205.796 84.879 208.045 84.879ZM264.474 94.8605C260.459 94.8605 256.822 93.8279 253.564 91.7628C250.328 89.6747 247.758 86.6115 245.854 82.573C243.972 78.5116 243.031 73.5323 243.031 67.6353C243.031 61.5776 244.007 56.541 245.957 52.5255C247.907 48.487 250.5 45.4696 253.736 43.4733C256.994 41.4541 260.562 40.4445 264.44 40.4445C267.4 40.4445 269.867 40.9493 271.84 41.9589C273.836 42.9456 275.442 44.1847 276.659 45.6761C277.898 47.1447 278.838 48.5903 279.481 50.0129H279.928V23.5105H294.556V94H280.1V85.533H279.481C278.792 87.0015 277.817 88.4586 276.555 89.9042C275.316 91.3268 273.699 92.5085 271.702 93.4493C269.729 94.3901 267.32 94.8605 264.474 94.8605ZM269.121 83.1925C271.484 83.1925 273.481 82.55 275.11 81.2651C276.762 79.9572 278.024 78.133 278.896 75.7925C279.791 73.452 280.238 70.71 280.238 67.5664C280.238 64.4229 279.802 61.6923 278.93 59.3748C278.058 57.0573 276.796 55.2675 275.144 54.0055C273.492 52.7434 271.484 52.1124 269.121 52.1124C266.712 52.1124 264.681 52.7664 263.029 54.0743C261.377 55.3822 260.126 57.1949 259.277 59.5125C258.428 61.83 258.004 64.5146 258.004 67.5664C258.004 70.6412 258.428 73.3602 259.277 75.7237C260.149 78.0641 261.4 79.8998 263.029 81.2307C264.681 82.5386 266.712 83.1925 269.121 83.1925ZM306.887 94V23.5105H353.559V35.798H321.79V52.5943H350.461V64.8818H321.79V94H306.887ZM383.314 95.0326C377.967 95.0326 373.344 93.8967 369.443 91.6251C365.565 89.3305 362.571 86.1411 360.459 82.0567C358.348 77.9494 357.293 73.1882 357.293 67.7729C357.293 62.3118 358.348 57.5391 360.459 53.4548C362.571 49.3475 365.565 46.158 369.443 43.8864C373.344 41.5918 377.967 40.4445 383.314 40.4445C388.66 40.4445 393.272 41.5918 397.15 43.8864C401.051 46.158 404.057 49.3475 406.168 53.4548C408.279 57.5391 409.334 62.3118 409.334 67.7729C409.334 73.1882 408.279 77.9494 406.168 82.0567C404.057 86.1411 401.051 89.3305 397.15 91.6251C393.272 93.8967 388.66 95.0326 383.314 95.0326ZM383.382 83.6744C385.815 83.6744 387.845 82.986 389.474 81.6093C391.104 80.2096 392.331 78.3051 393.157 75.8958C394.006 73.4864 394.431 70.7444 394.431 67.6697C394.431 64.595 394.006 61.8529 393.157 59.4436C392.331 57.0343 391.104 55.1298 389.474 53.7301C387.845 52.3304 385.815 51.6306 383.382 51.6306C380.927 51.6306 378.862 52.3304 377.187 53.7301C375.535 55.1298 374.284 57.0343 373.435 59.4436C372.609 61.8529 372.196 64.595 372.196 67.6697C372.196 70.7444 372.609 73.4864 373.435 75.8958C374.284 78.3051 375.535 80.2096 377.187 81.6093C378.862 82.986 380.927 83.6744 383.382 83.6744ZM418.868 94V41.1329H433.083V50.3571H433.634C434.597 47.0758 436.215 44.5977 438.487 42.9226C440.758 41.2246 443.374 40.3757 446.334 40.3757C447.068 40.3757 447.86 40.4215 448.709 40.5133C449.558 40.6051 450.304 40.7313 450.946 40.8919V53.9022C450.258 53.6957 449.306 53.5121 448.09 53.3515C446.873 53.1909 445.761 53.1106 444.751 53.1106C442.594 53.1106 440.667 53.581 438.969 54.5217C437.294 55.4396 435.963 56.7245 434.976 58.3766C434.012 60.0287 433.53 61.9332 433.53 64.0901V94H418.868ZM479.884 114.927C475.134 114.927 471.061 114.273 467.665 112.965C464.292 111.68 461.607 109.924 459.611 107.699C457.615 105.473 456.318 102.972 455.722 100.195L469.283 98.3712C469.696 99.4267 470.35 100.413 471.245 101.331C472.14 102.249 473.321 102.983 474.79 103.534C476.281 104.108 478.094 104.394 480.228 104.394C483.417 104.394 486.045 103.614 488.11 102.054C490.198 100.517 491.242 97.9352 491.242 94.3098V84.6381H490.622C489.98 86.1066 489.016 87.4949 487.731 88.8028C486.446 90.1107 484.794 91.1777 482.775 92.0037C480.756 92.8298 478.346 93.2428 475.547 93.2428C471.577 93.2428 467.963 92.325 464.705 90.4893C461.47 88.6307 458.888 85.7969 456.961 81.9879C455.056 78.1559 454.104 73.3144 454.104 67.4632C454.104 61.4743 455.079 56.4721 457.03 52.4566C458.98 48.4411 461.573 45.4352 464.808 43.4389C468.067 41.4426 471.635 40.4445 475.513 40.4445C478.473 40.4445 480.951 40.9493 482.947 41.9589C484.943 42.9456 486.55 44.1847 487.766 45.6761C489.005 47.1447 489.957 48.5903 490.622 50.0129H491.173V41.1329H505.732V94.5163C505.732 99.0137 504.631 102.777 502.428 105.806C500.225 108.834 497.173 111.106 493.273 112.621C489.395 114.158 484.932 114.927 479.884 114.927ZM480.194 82.2288C482.557 82.2288 484.553 81.6437 486.182 80.4734C487.834 79.2803 489.097 77.5823 489.968 75.3795C490.863 73.1537 491.311 70.492 491.311 67.3943C491.311 64.2967 490.875 61.612 490.003 59.3404C489.131 57.0458 487.869 55.2675 486.217 54.0055C484.565 52.7434 482.557 52.1124 480.194 52.1124C477.784 52.1124 475.754 52.7664 474.101 54.0743C472.449 55.3593 471.199 57.149 470.35 59.4436C469.501 61.7382 469.076 64.3884 469.076 67.3943C469.076 70.4461 469.501 73.0849 470.35 75.3106C471.222 77.5134 472.472 79.2229 474.101 80.439C475.754 81.6322 477.784 82.2288 480.194 82.2288ZM541.493 95.0326C536.055 95.0326 531.374 93.9312 527.45 91.7284C523.55 89.5026 520.544 86.359 518.433 82.2976C516.322 78.2133 515.266 73.3832 515.266 67.8074C515.266 62.3692 516.322 57.5965 518.433 53.4892C520.544 49.3819 523.515 46.1809 527.347 43.8864C531.202 41.5918 535.722 40.4445 540.908 40.4445C544.396 40.4445 547.643 41.0067 550.649 42.131C553.677 43.2324 556.316 44.896 558.565 47.1217C560.837 49.3475 562.603 52.1469 563.865 55.5199C565.127 58.87 565.758 62.7937 565.758 67.2911V71.3181H521.117V62.2315H551.957C551.957 60.1205 551.498 58.2504 550.58 56.6213C549.662 54.9921 548.388 53.7186 546.759 52.8008C545.153 51.86 543.283 51.3896 541.149 51.3896C538.923 51.3896 536.95 51.9059 535.229 52.9385C533.531 53.9481 532.2 55.3134 531.236 57.0343C530.273 58.7323 529.779 60.6253 529.756 62.7134V71.3525C529.756 73.9683 530.238 76.2285 531.202 78.133C532.189 80.0375 533.577 81.506 535.367 82.5386C537.156 83.5711 539.279 84.0874 541.734 84.0874C543.363 84.0874 544.855 83.858 546.209 83.399C547.562 82.9401 548.721 82.2517 549.685 81.3339C550.649 80.4161 551.383 79.2917 551.888 77.9609L565.449 78.8558C564.76 82.1141 563.349 84.9594 561.215 87.3916C559.104 89.8009 556.374 91.6825 553.024 93.0363C549.696 94.3671 545.853 95.0326 541.493 95.0326Z" fill="#F4F4F4"/>
<path d="M0 67.2L32.0833 12V48.8H55L22.9167 104V67.2H0Z" fill="url(#paint0_linear_3_18)"/>
<defs>
<linearGradient id="paint0_linear_3_18" x1="17.3462" y1="68.8049" x2="60.0769" y2="68.8049" gradientUnits="userSpaceOnUse">
<stop stop-color="#00D4FF"/>
<stop offset="1" stop-color="#5B5BFF"/>
</linearGradient>
</defs>
</svg>
